<?xml version="1.0" encoding="utf-8"?>
<!-- Generator: Adobe Illustrator 25.2.1, SVG Export Plug-In . SVG Version: 6.00 Build 0)  -->
<svg version="1.1" id="Layer_1" xmlns="http://www.w3.org/2000/svg" xmlns:xlink="http://www.w3.org/1999/xlink" x="0px" y="0px"
	 viewBox="0 0 1200 1200" style="enable-background:new 0 0 1200 1200;" xml:space="preserve">
<g>
	<path d="M865.88,59.81c20.4,0,40.8,0,61.19,0c36.41,12.19,48.09,38.4,47.85,75.43c-1,154.73-0.41,309.47-0.45,464.2
		c0,5.62-0.11,11.26-0.63,16.85c-2.25,24.6-19.43,44.73-43.43,51.23c-2.85,0.77-5.63,1.81-8.71,2.81c1.64,4.24,2.76,7.57,4.19,10.75
		c10.2,22.7,21.01,45.16,30.29,68.23c2.19,5.43,1.15,14.1-1.95,19.06c-2.17,3.46-11.09,5.35-15.71,3.88
		c-4.75-1.51-9.08-7.36-11.64-12.32c-44.26-85.57-73.85-176.46-94.34-270.21c-11.13-50.91-18.1-102.72-27.09-154.97
		c-12.33,0-27.24,0-43.1,0c2.82,26.59,5.36,52.43,8.32,78.22c9.57,83.5,27.32,165.29,53.12,245.24
		c27.58,85.44,62.77,167.42,113.09,242.3c8.12,12.09,5.84,20.33-7.44,27.4c-14.68,7.81-29.52,15.3-46.31,23.97
		c48.44,17.57,94.71,34.35,141.69,51.38c13.47-48.38,26.62-95.62,40.4-145.13c-17.5,8.99-32.44,16.69-47.41,24.34
		c-9.01,4.6-17.33,3.95-23.14-4.9c-11.36-17.31-22.45-34.8-33.18-52.51c-4.39-7.24-2.5-14.37,3.92-19.81
		c7.39-6.26,18.25-3.72,24.18,5.66c7.99,12.65,15.71,25.48,23.6,38.33c19.37-9.94,37.53-19.06,55.5-28.56
		c9.09-4.81,17.97-6.46,26.59,0.24c8.81,6.85,8.74,16.21,6.05,25.89c-15.96,57.38-31.93,114.75-48,172.1
		c-4.87,17.37-15.37,22.55-32.81,16.33c-22.11-7.89-44.18-15.92-66.24-23.93c-34.58-12.55-69.14-25.16-103.73-37.67
		c-8.74-3.16-14.26-8.91-15.01-18.37c-0.79-9.94,4.09-16.72,12.68-21.15c4.06-2.09,8.16-4.09,12.21-6.19
		c13.86-7.19,27.71-14.4,41.84-21.75c-5.65-9.27-10.72-17.26-15.47-25.44c-36.8-63.29-65.86-130.03-88.46-199.6
		c-2.75-8.48-6.17-12.57-15.92-11.84c-13.64,1.03-27.41,0.26-41.13,0.26c-25.97,0-51.93,0-78.45,0c0,98.1,0,195.33,0,293.36
		c22.78,0,44.9-0.18,67.01,0.06c14.24,0.16,23.73,12.11,19.34,24.61c-1.56,4.44-5.02,8.44-8.31,12
		c-39.13,42.36-78.32,84.67-117.73,126.76c-4.92,5.26-11.21,9.23-16.87,13.8c-4.22,0-8.44,0-12.66,0
		c-4.44-3.31-9.51-6.03-13.23-10.01c-41.05-43.93-81.85-88.1-122.84-132.09c-6.53-7-10.16-14.57-6.06-23.81
		c4.1-9.23,12.09-11.61,21.72-11.46c21.06,0.33,42.12,0.1,63.85,0.1c0-98,0-195.24,0-293.34c-4.36,0-8.16,0-11.97,0
		c-35.87,0-71.75,0.43-107.6-0.28c-9.68-0.19-13.15,3.36-15.91,11.85c-22.64,69.54-51.66,136.31-88.47,199.59
		c-4.88,8.39-10.02,16.64-15.4,25.54c17.92,9.26,34.93,18.23,52.1,26.86c9.28,4.66,15.39,11.17,14.55,22.15
		c-0.81,10.52-7.62,15.8-16.96,19.17c-56.35,20.34-112.61,40.91-168.96,61.25c-16.46,5.94-27.08,0.28-31.86-16.79
		c-16.07-57.35-32.03-114.72-48-172.1c-2.69-9.68-2.8-19.03,6.03-25.89c8.63-6.7,17.5-5.05,26.59-0.26
		c18.21,9.59,36.62,18.81,54.79,28.11c24.02-30.9,78.91-137.67,91.71-178.04c-0.52-0.45-0.98-1.11-1.59-1.3
		c-2.33-0.75-4.72-1.32-7.07-2.03c-19.83-6.02-36.38-18.26-39.67-38.36c-4.03-24.64-2.82-50.23-2.72-75.41
		c0.03-7.42,6.88-10.99,14.43-11.05c7.55-0.06,12.99,3.37,14.84,10.83c1,4.03,0.96,8.36,1.02,12.56
		c0.24,15.46-0.06,30.95,0.61,46.39c0.55,12.66,7.92,21,19.91,24.18c4.35,1.16,13.28,0.22,13.72-1.44
		c3.01-11.5,15.45-22.7,7.65-34.38c-6-8.98-10.13-17.06-10.12-27.66c0.06-138.56,0.01-277.11,0.07-415.67
		c0.01-24.71,9.82-34.26,34.64-34.26c183.92,0,367.84,0,551.77,0c26.88,0,35.94,9.04,35.96,36.13
		c0.04,61.54,0.18,335.84-0.23,411.45c-0.04,8.06-0.87,18.49-5.75,23.62c-7.95,8.36-7.35,15.18-3.27,23.91
		c1.48,3.16,2.52,6.54,3.69,9.84c3.9,11.02,6.33,12.24,17.62,8.41c10.95-3.72,17.68-11.1,19.01-22.82
		c0.47-4.18,0.68-8.41,0.68-12.62c0.03-157.55,0.01-479.69-0.35-483.17c-1.66-16.28-12.17-26.13-28.51-26.43
		c-12.66-0.23-25.33-0.32-37.98,0.04c-9.17,0.26-17.31-1.38-20.41-11.02C852.61,70.89,857.79,64.4,865.88,59.81z M879.02,208.17
		c-186.35,0-372.04,0-557.8,0c0,31.73,0,62.76,0,93.87c186.33,0,371.79,0,557.8,0C879.02,270.47,879.02,239.36,879.02,208.17z
		 M702.47,994.53c-19.31,0-35.77,0.07-52.23-0.02c-13.59-0.08-19.04-5.44-19.55-19.04c-0.15-3.86-0.04-7.73-0.04-11.6
		c0-204.96,0-409.91,0-614.87c0-4.77,0-9.54,0-14.33c-21.14,0-40.68,0-61.28,0c0,4.71,0,8.87,0,13.03c0,91.05,0,182.11,0,273.16
		c0,116.72,0.01,233.43-0.02,350.15c0,19.17-4.45,23.52-23.57,23.53c-15.26,0.01-30.52,0-48.25,0
		c35.31,38.08,68.78,74.18,102.54,110.59C634.3,1068.16,667.44,1032.37,702.47,994.53z M134.7,858.09
		c13.86,49.69,27.05,97.02,40.5,145.25c47.19-17.15,93.44-33.95,141.6-51.45c-17.04-8.87-32.28-16.61-47.34-24.68
		c-12.05-6.46-14.32-14.75-6.81-25.95c52.66-78.44,88.89-164.47,117.05-254.15c26.97-85.9,43.85-173.92,53.26-263.39
		c1.71-16.22,2.65-32.52,3.97-49.12c-15.78,0-30.41,0-45.58,0c-0.94,10.19-1.66,19.93-2.76,29.64
		c-11.02,97.62-33.7,192.52-67.38,284.74c-28.84,78.98-64.33,154.7-112.51,224.01c-9.87,14.2-15.17,15.39-30.84,7.32
		C164.26,873.3,150.64,866.29,134.7,858.09z M320.93,175.16c186.51,0,372.19,0,557.8,0c0-7.17,0-13.56,0-19.91
		c-186.37,0-371.79,0-557.8,0C320.93,161.96,320.93,168.15,320.93,175.16z M537.09,409.81c-23.71,0-46.84-0.2-69.94,0.32
		c-2.17,0.05-5.63,4.4-6.12,7.17c-2.5,14.12-4.13,28.39-6.23,42.59c-2.16,14.66-4.51,29.29-6.84,44.37c30.45,0,59.44,0,89.14,0
		C537.09,472.72,537.09,441.68,537.09,409.81z M751.66,504.33c-4.33-30.52-8.39-59.94-12.9-89.29c-0.31-2.01-3.94-4.98-6.07-5.01
		c-23.09-0.36-46.18-0.23-69.73-0.23c0,32.02,0,63.05,0,94.53C692.72,504.33,721.73,504.33,751.66,504.33z M537.17,536.46
		c-31.02,0-61.51-0.07-92,0.18c-1.73,0.01-4.53,2.38-4.96,4.12c-2.72,10.82-4.91,21.78-7.43,33.4c35.16,0,69.45,0,104.39,0
		C537.17,561.78,537.17,549.65,537.17,536.46z M662.71,573.91c35.39,0,69.58,0,104.63,0c-2.25-9.79-5.14-18.54-6.07-27.5
		c-0.94-9.05-5.42-10.35-13.26-10.18c-21.43,0.47-42.88,0.16-64.32,0.16c-6.87,0-13.75,0-20.97,0
		C662.71,549.78,662.71,561.61,662.71,573.91z M537.14,606.31c-36.44,0-72.22-0.07-108.01,0.19c-2.03,0.02-5.21,2.41-5.85,4.36
		c-2.81,8.56-4.88,17.37-7.37,26.68c40.9,0,80.8,0,121.23,0C537.14,627.05,537.14,617.03,537.14,606.31z M784.1,637.55
		c-2.5-9.33-4.56-18.13-7.37-26.7c-0.64-1.94-3.83-4.33-5.86-4.35c-35.78-0.26-71.56-0.19-108-0.19c0,10.74,0,20.75,0,31.24
		C703.3,637.55,743.2,637.55,784.1,637.55z M465.4,377.6c24.23,0,47.6,0,71.64,0c0-14.57,0-28.72,0-42.85c-23.08,0-45.39,0-68.24,0
		C467.65,349.24,466.55,363.1,465.4,377.6z M662.82,377.37c24.67,0,48,0,71.88,0c-1.25-14.72-2.43-28.59-3.63-42.74
		c-23.15,0-45.46,0-68.26,0C662.82,349.06,662.82,362.95,662.82,377.37z M848.94,410.31c6.4,30.6,12.41,60.32,19.15,89.88
		c0.56,2.44,6.06,3.75,10.8,6.46c0-34.08,0-65.09,0-96.34C869.1,410.31,860.11,410.31,848.94,410.31z M320.9,503.6
		c7.71,2.69,10.92,0.53,12.23-6.21c3.28-16.81,7.22-33.5,10.53-50.3c2.38-12.12,4.16-24.35,6.23-36.61c-10.67,0-19.62,0-28.99,0
		C320.9,441.93,320.9,472.67,320.9,503.6z M840.39,334.47c1.7,14.88,3.27,28.71,4.91,43.08c11.37,0,22.09,0,33.6,0
		c0-14.38,0-28.55,0-43.08C866.17,334.47,853.99,334.47,840.39,334.47z M321.14,334.49c0,14.58,0,28.75,0,43.03
		c11.53,0,22.25,0,33.64,0c1.59-14.58,3.12-28.58,4.7-43.03C345.96,334.49,333.79,334.49,321.14,334.49z"/>
	<path d="M808.91,59.81c6.39,5.66,12.66,11.3,8.73,21.27c-3.86,9.79-11.94,10.4-20.81,10.4c-168.07-0.08-336.14-0.06-504.2-0.06
		c-25.96,0-35.55,9.51-35.56,35.59c-0.04,117.44-0.01,234.87-0.05,352.31c0,4.9,0.09,9.94-0.93,14.68
		c-1.71,8-7.43,11.58-15.46,11.33c-7.61-0.23-12.74-4.04-14.22-11.56c-0.87-4.43-0.86-9.08-0.86-13.64
		c-0.04-114.98,0.71-229.96-0.46-344.92c-0.38-37.06,11.46-63.22,47.86-75.4C451.59,59.81,630.25,59.81,808.91,59.81z"/>
</g>
</svg>
