<?xml version="1.0" encoding="utf-8"?>
<!-- Generator: Adobe Illustrator 25.2.1, SVG Export Plug-In . SVG Version: 6.00 Build 0)  -->
<svg version="1.1" id="Layer_1" xmlns="http://www.w3.org/2000/svg" xmlns:xlink="http://www.w3.org/1999/xlink" x="0px" y="0px"
	 viewBox="0 0 1200 1200" style="enable-background:new 0 0 1200 1200;" xml:space="preserve">
<path d="M148.17,878.75c-0.16,1.9-0.95,3.43-1.53,4.54c-0.01,0.02-0.02,0.05-0.04,0.07v20.12c0.25,1.78,0.51,3.56,0.76,5.34
	c0.56,3.98,1.14,8.09,1.76,12.11c16.11,103.56,109.54,172.66,212.7,157.3c74.39-11.07,126.2-54.75,149.85-126.33
	c23.39-70.8,7.82-134.89-46.26-190.5c-9.32-9.59-13.12-18.66-13.09-31.31c0.29-145.74,0.5-318.64-0.1-496.08
	c-0.17-49.21-34.23-93.73-82.84-108.26c-5.66-1.69-11.62-3.04-17.39-4.34c-2.58-0.58-5.16-1.17-7.72-1.78h-18.21
	c-4.02,1.07-8.12,1.99-12.09,2.89c-9.14,2.06-17.78,4-25.68,7.58c-47.72,21.58-72.02,58.96-72.21,111.1
	c-0.4,107.85-0.05,487.32-0.4,499c-0.14,4.67-2.04,11-5.98,14.63C172.91,788.78,152.21,830.47,148.17,878.75z M237.37,774.57
	c8.22-6.65,11.56-13.87,11.55-24.91c-0.21-185.86-0.16-369.06-0.09-507.9c0.02-40.37,21.71-71.87,58.02-84.26
	c26.51-9.05,54.3-5.26,76.27,10.39c23.6,16.81,37.21,44.51,37.34,75.99c0.24,59.3,0.21,441.57-0.13,504.7
	c-0.07,12.18,3.64,20.14,12.8,27.47c22.96,18.36,39.84,43.53,48.82,72.79c8.94,29.13,9.25,59.65,0.91,88.28
	c-17.49,60-68.39,103.31-129.68,110.35c-6.16,0.71-12.3,1.06-18.41,1.06c-39.93,0-78.17-14.93-107.07-42.28
	c-32.9-31.14-50.22-75.28-47.5-121.08C182.87,840.32,202.1,803.11,237.37,774.57z"/>
<path d="M774.53,261.73c-0.22,0-0.46,0-0.68,0c-76.19,0-136.3,59.76-136.98,136.34c-0.33,36.93,13.69,71.67,39.47,97.81
	c25.96,26.32,60.83,40.91,98.19,41.1c0.22,0,0.44,0,0.66,0c35.73,0,69.73-14.25,95.82-40.16c26.43-26.25,41.01-60.75,41.08-97.14
	C912.21,323.97,850.51,262.09,774.53,261.73z M848.48,473.45c-20.1,19.98-46.57,30.98-74.57,30.98c-0.13,0-0.25,0-0.38,0
	c-27.77-0.1-54.09-11.32-74.1-31.61c-20-20.27-30.86-46.7-30.59-74.43c0.27-27.64,11.42-53.84,31.4-73.76
	c19.98-19.92,46.12-30.9,73.59-30.9c0,0,0.01,0,0.01,0c28.07,0,54.57,11.08,74.63,31.18c20.1,20.15,31.13,46.76,31.07,74.93
	C879.47,427.45,868.44,453.59,848.48,473.45z"/>
<g>
	<path d="M972.95,383.18c-6.68,0.04-12.24,1.97-15.65,5.43c-2.69,2.73-4.04,6.3-4,10.61c0.08,9.97,7.35,15.75,19.94,15.85
		c6.72,0.05,49.2-0.07,56.28,0.25c12.78,0.57,19.97-3.62,23.88-13.99v-4.63c-4.37-10.35-11.65-14.49-24.11-13.81
		C1016.84,383.57,979.29,383.14,972.95,383.18z"/>
	<path d="M594.95,398.79c-0.16-8.96-6.5-15.19-15.76-15.5c-7.39-0.25-62.99-0.13-67.55,0.02c-9.04,0.29-15.39,6.74-15.43,15.69
		c-0.05,9.29,6.01,15.66,15.08,15.83c23.43,0.46,46.56,0.45,68.75-0.03C588.84,414.61,595.11,407.88,594.95,398.79z"/>
</g>
<g>
	<path d="M903.81,247.34c-4.7,4.75-7.26,10.05-7.23,14.9c0.03,3.83,1.6,7.31,4.67,10.33c7.11,7,16.33,5.94,25.31-2.89
		c4.79-4.71,34.74-34.84,39.97-39.62c9.44-8.63,11.56-16.69,6.99-26.78l-3.27-3.27c-10.41-4.23-18.48-2.01-26.81,7.28
		C935.12,216.59,908.26,242.83,903.81,247.34z"/>
	<path d="M647.56,525.67c-6.45-6.22-15.33-6.15-22.1,0.18c-5.4,5.06-44.63,44.45-47.76,47.78c-6.19,6.6-6.11,15.65,0.18,22.01
		c6.54,6.6,15.32,6.82,21.86,0.54c16.89-16.24,33.24-32.61,48.59-48.63C654.43,541.18,654.1,531.98,647.56,525.67z"/>
</g>
<g>
	<path d="M622.46,270.02c4.75,4.7,10.05,7.26,14.9,7.23c3.83-0.03,7.31-1.6,10.33-4.67c7-7.11,5.94-16.33-2.89-25.31
		c-4.71-4.79-34.84-34.74-39.62-39.97c-8.63-9.44-16.69-11.56-26.78-6.99l-3.27,3.27c-4.23,10.41-2.01,18.48,7.28,26.81
		C591.71,238.71,617.95,265.56,622.46,270.02z"/>
	<path d="M900.79,526.27c-6.22,6.45-6.15,15.33,0.18,22.1c5.06,5.4,44.45,44.63,47.78,47.76c6.6,6.19,15.65,6.11,22.01-0.18
		c6.6-6.54,6.82-15.32,0.54-21.86c-16.24-16.89-32.61-33.24-48.63-48.59C916.3,519.4,907.1,519.73,900.79,526.27z"/>
</g>
<g>
	<path d="M758.56,201.2c0.04,6.68,1.97,12.24,5.43,15.65c2.73,2.69,6.3,4.04,10.61,4c9.97-0.08,15.75-7.35,15.85-19.94
		c0.05-6.72-0.07-49.2,0.25-56.28c0.57-12.78-3.62-19.97-13.99-23.88h-4.63c-10.35,4.37-14.49,11.65-13.81,24.11
		C758.96,157.32,758.52,194.86,758.56,201.2z"/>
	<path d="M774.18,579.2c-8.96,0.16-15.19,6.5-15.5,15.76c-0.25,7.39-0.13,62.99,0.02,67.55c0.29,9.04,6.74,15.39,15.69,15.43
		c9.29,0.05,15.66-6.01,15.83-15.08c0.46-23.43,0.45-46.56-0.03-68.75C789.99,585.31,783.26,579.04,774.18,579.2z"/>
</g>
<path d="M224.38,920.29c10.16,45.42,51.44,81.77,98.15,86.45c52.47,5.27,102.56-26.99,119.11-76.68
	c17.06-51.2-3.41-105.97-49.76-133.17c-9.04-5.31-10.88-11.71-10.86-19.69c0.16-56.08,0.14-377.54,0.1-429
	c-0.01-15.8-5.2-20.88-21.33-20.92c-6.51-0.02-47.53-0.01-47.53-0.01c-20.79,0.01-25,4.25-25,25.23c0,0-0.03,306.78,0.2,424.69
	c0.02,9.65-3.18,15.33-11.41,20.26C233.66,822.87,213.38,871.08,224.38,920.29z M302.79,820.47c12.88-5.78,17.66-13.36,17.62-27.98
	c-0.27-105.95-0.2-431.93-0.2-431.93H349c0,0,0.09,325.77-0.25,431.04c-0.05,16.01,4.73,23.67,18.28,29.26
	c36.67,15.13,56.01,56.11,44.99,95.32c-5.31,18.89-17.32,35.04-33.81,45.47c-13.23,8.37-28.89,12.76-45.04,12.76
	c-3.9,0-7.83-0.26-11.77-0.78c-37.17-4.9-67.49-39.84-67.59-77.88C253.73,860.92,270.66,834.89,302.79,820.47z"/>
</svg>
