<?xml version="1.0" encoding="utf-8"?>
<!-- Generator: Adobe Illustrator 25.2.1, SVG Export Plug-In . SVG Version: 6.00 Build 0)  -->
<svg version="1.1" id="Layer_1" xmlns="http://www.w3.org/2000/svg" xmlns:xlink="http://www.w3.org/1999/xlink" x="0px" y="0px"
	 viewBox="0 0 1200 1200" style="enable-background:new 0 0 1200 1200;" xml:space="preserve">
<g>
	<path d="M1124.22,653.24c0,91.46,0,182.93,0,274.39c-0.66,1.12-1.55,2.16-1.95,3.36c-6.21,18.8-18.83,30.69-38.52,33.34
		c-21.44,2.88-38-5.86-48.28-24.83c-2.9-5.35-6.26-5.98-11.28-5.97c-47.99,0.09-95.97,0.06-143.96,0.06c-3.24,0-6.49,0-10.21,0
		c0,5.29,0,9.01,0,12.73c0.01,14.58-3.91,28-15.28,37.46c-6.81,5.66-15.51,9.06-23.35,13.47c-5.46,0-10.92,0-16.38,0
		c-14.12-4.8-27.24-11.24-33.86-25.57c-2.64-5.72-6.08-6.93-11.76-6.9c-37.53,0.19-75.05,0.1-112.58,0.1
		c-7.85,0-15.7,0.12-23.54-0.14c-8.78-0.29-14.01-5.12-14.77-13.78c-0.77-8.8,3.94-14.21,12.41-16.05
		c3.28-0.71,6.77-0.66,10.16-0.67c40.94-0.04,81.88-0.03,122.81-0.03c3.62,0,7.24,0,11.14,0c0-96.38,0-191.34,0-286.32
		c-117.17,0-233.61,0-349.97,0c0,95.74,0,190.68,0,286.32c4.57,0,8.3,0,12.02,0c40.6,0,81.19-0.05,121.79,0.07
		c4.37,0.01,8.96,0.28,13.06,1.6c7.54,2.43,11.61,8.97,9.11,15.91c-1.83,5.09-7.61,9.23-12.47,12.57
		c-2.35,1.62-6.64,0.51-10.04,0.51c-42.64,0.02-85.29-0.06-127.93,0.15c-3.31,0.02-8.64,1.04-9.59,3.15
		c-7.18,15.97-20.38,23.92-36.03,29.09c-5.46,0-10.92,0-16.38,0c-22.84-8.01-37.54-22.58-38.58-48.05
		c-0.2-4.96-0.03-9.94-0.03-15.61c-4.78,0-8.14,0-11.5,0c-46.75,0-93.51,0.14-140.26-0.15c-7.17-0.04-11.22,1.54-15.13,8.39
		c-15.54,27.23-52.87,31.39-74.06,8.28c-5.75-6.27-8.91-14.91-13.26-22.47c0-91.46,0-182.93,0-274.39c0.69-1.07,1.64-2.05,2.03-3.22
		c6.71-19.76,20.62-31.46,41.11-33.23c20.53-1.77,35.86,7.76,46.42,25.66c1.81,3.07,7.3,5.59,11.11,5.62
		c47.77,0.38,95.55,0.26,143.32,0.22c3.22,0,6.45-0.44,10.2-0.71c0-5.18-0.05-9.25,0.01-13.32c0.37-23.66,14.54-42.94,35.35-48.16
		c21.73-5.45,42.19,4.02,54.3,24.81c1.32,2.27,4.02,5.13,6.21,5.25c10.11,0.56,20.26,0.25,31.36,0.25c0-19.8-0.27-38.49,0.14-57.17
		c0.15-6.85-1.63-10.77-8.06-14.35c-21.15-11.76-29.35-37.31-19.54-59.13c8.8-19.57,24.78-28.2,45.7-28.44
		c14.87-0.17,29.75-0.03,44.82-0.03c0-32.77,0-64,0-95.88c-3.57-0.23-6.54-0.54-9.52-0.59c-17.41-0.32-21.34-4.34-21.36-21.98
		c-0.01-13.53,0-27.07,0-41.65c-4.9,0-8.57,0-12.23,0c-23.2-0.04-46.41,0.21-69.61-0.19c-21.84-0.37-40.91-16.81-44.78-37.81
		c-4.07-22.05,7.67-43.83,28.31-52.43c3.4-1.42,6.86-2.69,10.29-4.02c45.05,0,90.1,0,135.15,0c7.87,4.72,13.58,10.7,10.18,20.74
		c-3.28,9.71-11.44,10.15-20.05,10.11c-36.5-0.15-73-0.07-109.5-0.06c-3.07,0-6.18-0.22-9.2,0.18c-9.57,1.28-15.37,8.24-14.91,17.51
		c0.43,8.67,6.6,14.56,16.02,15.17c2.72,0.18,5.46,0.11,8.18,0.11c121.78,0,243.55,0.01,365.33,0c3.41,0,6.85,0.14,10.22-0.25
		c8.48-0.98,14.09-7.46,14.14-15.93c0.06-10.91-7.11-16.77-20.95-16.78c-60.38-0.05-120.75-0.1-181.13,0.06
		c-9.22,0.02-17.27-1.17-20.05-11.55c-2.66-9.93,3.54-15.08,11.08-19.31c67.57,0,135.15,0,202.72,0c0.83,0.55,1.6,1.34,2.51,1.62
		c26.02,7.94,40.08,28.8,36.21,53.84c-3.5,22.71-23.54,38.76-49.05,38.95c-22.18,0.17-44.36,0.02-66.54,0.07
		c-3.58,0.01-7.15,0.3-11.17,0.49c0,16.31,0.14,31.31-0.05,46.3c-0.14,10.85-5.48,16.22-16.24,16.71c-4.66,0.21-9.34,0.04-14.4,0.04
		c0,32.82,0,64.28,0,96.54c15.1,0,29.38-0.09,43.66,0.02c25.45,0.2,43.38,13.39,49.38,36.19c5.4,20.51-4.1,40.7-24.74,53.29
		c-2.26,1.38-5.11,4.21-5.15,6.41c-0.39,20.71-0.23,41.44-0.23,63.24c9.42,0,17.89-0.42,26.29,0.14c6.29,0.42,9.49-1.69,12.53-7.4
		c9.84-18.48,28.81-26.98,50.06-23.53c18.19,2.96,33.35,18.04,36.9,37.59c1.44,7.91,1.52,16.06,2.25,24.56
		c3.43,0.19,6.45,0.49,9.46,0.5c18.77,0.1,37.53-0.04,56.3,0.26c9.12,0.14,14.71,5.09,15.47,14.35c0.71,8.69-5.31,15.01-15.11,15.82
		c-6.1,0.51-12.27,0.21-18.42,0.21c-15.89,0.02-31.78,0.01-47.82,0.01c0,75.35,0,149.19,0,223.16c53.33,0,105.98,0,158.55,0
		c0-74.66,0-148.54,0-223.28c-8.88,0-17.06,0.42-25.19-0.11c-10.03-0.65-15.41-6.61-15.15-15.67c0.24-8.64,5.44-13.81,15.18-14.51
		c5.77-0.41,11.62-0.58,17.38-0.13c7.14,0.56,11.41-1.27,15.21-8.35c10.36-19.29,32.34-27.48,53.37-21.68
		C1108.3,623.43,1117.43,637.14,1124.22,653.24z M170.69,679.42c0,74.99,0,148.79,0,222.73c53.31,0,105.94,0,158.6,0
		c0-74.59,0-148.43,0-222.73C276.22,679.42,223.81,679.42,170.69,679.42z M712.12,616.15c0-18.7-0.44-36.39,0.19-54.04
		c0.3-8.62-2.54-10.93-10.97-10.86c-46.06,0.37-92.13,0.18-138.19,0.18c-22.18,0-44.36-0.16-66.53,0.2
		c-2.9,0.05-8.21,2.75-8.25,4.34c-0.57,19.96-0.37,39.95-0.37,60.18C563.17,616.15,636.83,616.15,712.12,616.15z M393.52,791.16
		c0-52.53,0.06-105.06-0.05-157.59c-0.02-10.99-5.93-17.57-15.3-18.02c-9.72-0.46-16.67,6.39-17.46,17.33
		c-0.2,2.72-0.06,5.46-0.06,8.18c0,99.94-0.01,199.89,0.02,299.83c0,3.74-0.21,7.57,0.47,11.21c1.69,9.09,10.22,15.41,18.4,14.09
		c9.05-1.46,13.94-8.02,13.96-19.5C393.57,894.86,393.53,843.01,393.52,791.16z M806.44,790.23c0,20.47,0,40.94,0,61.4
		c0.01,32.41-0.09,64.82,0.1,97.22c0.06,10.47,6.86,17.48,16.01,17.51c8.4,0.03,15.58-6.92,16.65-16.34
		c0.31-2.7,0.14-5.45,0.14-8.18c0.01-100.63,0.03-201.27-0.07-301.9c0-4.7-0.24-9.66-1.72-14.04c-3.06-9.02-13.24-13.01-21.79-8.97
		c-7.92,3.73-9.43,10.67-9.4,18.76C806.52,687.21,806.44,738.72,806.44,790.23z M648.41,456.81c0-30.86-0.06-60.43,0.05-90.01
		c0.02-6.19-3.93-6.03-8.24-6.02c-17.37,0.05-34.74,0.02-52.11,0.02c-11.78,0-23.57,0-35.7,0c0,32.85,0,64.24,0,96.01
		C584.51,456.81,615.74,456.81,648.41,456.81z M139.32,791.04c0-40.92,0.02-81.83-0.01-122.75c-0.01-13.64-6.09-21.3-16.6-21.14
		c-10.19,0.16-16.23,7.67-16.23,20.57c-0.03,82.17-0.04,164.34,0.01,246.52c0.01,12.98,5.99,19.94,16.67,19.83
		c10.81-0.11,16.14-6.7,16.15-20.28C139.35,872.87,139.32,831.96,139.32,791.04z M1093.53,791.52c0-41.6,0.05-83.19-0.03-124.79
		c-0.02-12.03-6.3-19.4-16.2-19.57c-9.96-0.17-16.59,7.21-16.6,19.06c-0.06,83.19-0.07,166.39,0.1,249.58
		c0.01,3.88,1.04,8.27,3.05,11.52c4.07,6.59,10.94,8.26,17.99,6.15c8.66-2.6,11.75-9.4,11.73-18.18
		C1093.48,874.04,1093.53,832.78,1093.53,791.52z M598.86,520.77c37.15,0,74.3,0.01,111.45-0.01c5.79,0,11.6,0.13,17.38-0.16
		c9.11-0.45,14.51-5.45,15.62-14.44c1.08-8.71-4.39-15.81-13.4-17.61c-3.3-0.66-6.77-0.58-10.17-0.58
		c-79.75-0.03-159.51-0.04-239.26,0.02c-4.05,0-8.25,0.09-12.11,1.15c-8.29,2.28-12.44,8.21-11.67,16.79
		c0.76,8.53,5.76,13.58,14.36,14.56c3.37,0.39,6.81,0.26,10.21,0.26C520.47,520.78,559.66,520.77,598.86,520.77z M520.59,329.4
		c53.42,0,106.04,0,158.48,0c0-11.07,0-21.39,0-32.16c-51.98,0-103.08,0-154.18,0.03c-1.28,0-2.56,0.42-4.3,0.73
		C520.59,308.43,520.59,318.51,520.59,329.4z"/>
	<path d="M599.35,901.25c-61.62-0.3-110.18-49.72-109.93-111.86c0.24-60.37,50.9-109.98,111.74-109.43
		c61.17,0.55,109.8,50.68,109.4,112.77C710.18,852.79,660.21,901.55,599.35,901.25z M599.83,870.57
		c44.54,0.06,80.04-35.24,80.09-79.62c0.05-44.14-35.79-80.24-79.75-80.32c-43.96-0.08-80.08,36-80.09,80
		C520.06,835.12,555.37,870.52,599.83,870.57z"/>
</g>
</svg>
