<?xml version="1.0" encoding="utf-8"?>
<!-- Generator: Adobe Illustrator 25.2.1, SVG Export Plug-In . SVG Version: 6.00 Build 0)  -->
<svg version="1.1" id="Layer_1" xmlns="http://www.w3.org/2000/svg" xmlns:xlink="http://www.w3.org/1999/xlink" x="0px" y="0px"
	 viewBox="0 0 1200 1200" style="enable-background:new 0 0 1200 1200;" xml:space="preserve">
<g>
	<path d="M1070.9,496.99c0,68.67,0,137.35,0,206.02c-13.01,30.87-24.6,38.46-58.72,38.46c-57.29,0-114.58,0.03-171.87-0.01
		c-32.52-0.03-51.93-19.41-52.1-52.02c-0.11-21.14,0-42.28-0.04-63.42c-0.01-3.24-0.28-6.47-0.42-9.56c-15.94,0-30.77,0-46.28,0
		c0,4.01,0,7.34,0,10.66c0,52.39,0,104.78,0,157.16c0,37.38-0.05,74.75,0.04,112.13c0.02,10.06,4.72,16.51,13.97,17.26
		c10.55,0.85,21.21,0.2,32.71,0.2c0-4.24,0-7.56,0-10.88c0-21.45-0.19-42.89,0.05-64.34c0.35-30.51,19.61-50.23,49.92-50.37
		c60.97-0.29,121.93-0.24,182.9-0.01c24.92,0.09,40.44,12.02,48.29,35.83c0.26,0.8,1.02,1.44,1.55,2.15c0,68.67,0,137.35,0,206.02
		c-5.76,20-18.6,32.91-38.63,38.63c-68.67,0-137.35,0-206.02,0c-28.75-9.32-39.67-29.82-38.23-59.05
		c0.92-18.65,0.19-37.37,0.15-56.07c-0.01-3.23-0.27-6.45-0.44-10.23c-8.94,0-16.88-0.33-24.79,0.06
		c-31.57,1.55-53.56-21.79-53.19-52.9c1.08-88.54,0.38-177.11,0.38-265.66c0-3.51,0-7.02,0-11.29c-14.4,0-27.25,0.3-40.07-0.13
		c-6.3-0.21-8.54,2.08-9.13,8.19c-1.07,10.94-2.18,21.96-4.57,32.66C625.23,795.9,495.02,886.11,353.52,862.71
		c-108.05-17.86-178.8-82.41-213.2-186.22c-5.42-16.36-7.56-33.8-11.22-50.75c0-17.17,0-34.34,0-51.5
		c1.15-5.94,2.45-11.86,3.44-17.83c23.19-139.5,149.79-236.64,290.38-221.38c94.59,10.27,164.11,59.26,209.51,142.37
		c16.58,30.35,25.71,63.26,28.74,97.84c0.27,3.11,3.27,8.45,5.22,8.55c14.24,0.74,28.54,0.4,43.73,0.4c0-4.92,0-8.53,0-12.15
		c0-88.87,0.53-177.74-0.31-266.59c-0.26-27.37,19.7-51.92,51.27-51.04c8.77,0.24,17.55,0.04,27.11,0.04c0-25.66,0.01-50.12,0-74.57
		c-0.01-17.63,5.87-32.52,20.97-42.51c5.23-3.46,11.36-5.55,17.09-8.27c68.67,0,137.35,0,206.02,0
		c20.06,5.69,32.87,18.64,38.63,38.63c0,68.67,0,137.35,0,206.02c-9.33,28.75-29.83,38.82-59.05,38.34
		c-56.97-0.94-113.96-0.22-170.95-0.3c-33.34-0.05-52.55-19.18-52.7-52.32c-0.09-21.14,0.01-42.28-0.05-63.42
		c-0.01-3.21-0.38-6.42-0.62-10.25c-8.94,0-16.86-0.03-24.79,0.01c-16.3,0.08-21.28,5.09-21.28,21.47
		c-0.01,88.85-0.01,177.69-0.01,266.54c0,3.26,0,6.51,0,9.77c16.14,0,30.99,0,46.72,0c0-3.95,0-7.25,0-10.55
		c0-21.75-0.31-43.51,0.09-65.25c0.53-28.65,19.8-48.95,47.45-49.11c62.5-0.38,125-0.29,187.5-0.04
		c22.1,0.09,39.16,13.37,45.83,34.33C1069.5,494.36,1070.28,495.65,1070.9,496.99z M241.46,776.89
		c95.21,84.2,232.77,71.41,309.05-0.9c-11.36-11.15-22.93-22.06-34-33.46c-17-17.5-19.21-39.97-5.53-60.32
		c14.29-21.26,23.28-44.26,25.59-69.8c2.24-24.76-2.3-48.23-14.96-72.25c-19.47,18.56-37.92,37.78-55.81,57.51
		c-4.04,4.46-7.5,10.37-8.87,16.17c-7.42,31.42-34.58,51.12-68.22,48.66c-28.26-2.07-53.89-28.52-55.37-57.16
		c-1.71-33.16,19.1-60.16,50.99-66.4c3.5-0.68,7.81-1.29,10.08-3.58c20.46-20.64,40.56-41.65,60.56-62.35
		c-20.85-13.43-61.69-18.11-93.1-10.07C266.25,487.45,224.18,597,278.84,679.16c16.64,25.01,14.53,46.2-6.81,67.52
		C262.08,756.63,252.01,766.48,241.46,776.89z M1039.62,929.64c0-29.74,0.02-59.47-0.01-89.21c-0.02-15.14-5.3-20.73-20.29-20.75
		c-59.78-0.1-119.56-0.09-179.34,0c-14.68,0.02-20.27,5.43-20.29,19.86c-0.12,60.09-0.12,120.18,0,180.26
		c0.03,14.41,5.77,19.81,20.29,19.82c59.78,0.03,119.56,0.03,179.34,0c14.8-0.01,20.27-5.64,20.29-20.76
		C1039.65,989.11,1039.62,959.37,1039.62,929.64z M1039.62,599.81c0-29.71,0.03-59.42-0.01-89.13
		c-0.02-15.03-5.55-20.77-20.34-20.79c-59.73-0.06-119.45-0.06-179.18,0c-14.46,0.01-20.38,5.56-20.41,19.77
		c-0.13,60.34-0.13,120.68,0.01,181.01c0.03,13.72,6.02,19.41,19.84,19.42c60.03,0.07,120.06,0.07,180.1,0
		c14.16-0.02,19.95-5.99,19.97-20.24C1039.66,659.84,1039.62,629.83,1039.62,599.81z M929.78,160.38c-30.35,0-60.7-0.06-91.05,0.03
		c-12.85,0.04-18.95,5.55-18.99,18.27c-0.19,61.01-0.18,122.02-0.01,183.02c0.04,12.82,5.83,18.55,18.74,18.58
		c60.7,0.16,121.4,0.16,182.1,0.01c13.38-0.03,19.02-5.99,19.03-19.22c0.06-60.39,0.05-120.79,0-181.18
		c-0.01-13.73-5.84-19.46-19.69-19.49C989.87,160.34,959.82,160.38,929.78,160.38z M161.41,584.88c20.52,0,39.47,0.13,58.41-0.23
		c1.66-0.03,4.48-3.11,4.72-5.03c4.17-33.37,17.22-62.88,37.81-88.55c-14.9-14.85-29.6-29.52-44.62-44.5
		C184.4,485.78,165.22,531.25,161.41,584.88z M286.39,467.03c26.88-21.99,57.87-34.6,92.72-38.65c0-21.04,0-41.64,0-62.86
		c-52.82,4.08-98.2,23.37-137.29,56.96C256.87,437.53,271.32,451.98,286.39,467.03z M219.2,755.03
		c12.04-12.03,23.69-23.23,34.81-34.94c5.77-6.08,5.3-13.18,0.98-20.25c-5.1-8.33-11.25-16.31-14.66-25.31
		c-7.06-18.66-12.61-37.89-19.01-57.57c-18.51,0-38.84,0-59.88,0C165.59,669.65,184.83,715.02,219.2,755.03z M630.47,615.75
		c-17.14,0-33.02,0.62-48.83-0.22c-10.18-0.54-14.67,1.48-16.05,12.98c-3.06,25.49-13.3,48.69-27.93,69.84
		c-4.87,7.05-6.1,14.33,0.18,20.89c11.4,11.91,23.25,23.38,35.28,35.39C607.2,714.59,626.46,669.22,630.47,615.75z M551.26,423.27
		c-41.19-34.6-86.49-54.14-139.16-57.66c0,21.57,0,42.13,0,62.77c23.49,2.55,44.91,9.19,65.05,20.07c2.15,1.16,5.92,1.2,8.12,0.1
		c11.84-5.9,23.89-6.57,36.56-3.39c2.43,0.61,6.15-0.07,7.99-1.66C536.99,437.35,543.63,430.58,551.26,423.27z M630.45,584.22
		c-3.93-53.39-23.26-98.8-58.57-140.35c-6.07,6.87-11.5,13.5-17.48,19.59c-3.38,3.45-4.43,6.16-2.62,11.14
		c4.56,12.59,3.48,25.12-2.35,37.39c-1.29,2.72-1.12,6.78-0.21,9.8c5.67,18.9,11.61,37.73,17.86,56.45c0.8,2.39,3.87,5.66,5.96,5.71
		C591.68,584.41,610.34,584.22,630.45,584.22z M451.53,569.75c9.96-10.59,19.6-21.25,29.68-31.47
		c12.02-12.19,24.58-23.85,36.6-36.05c7.01-7.12,7.11-16.68,1-22.95c-6.24-6.41-15.3-6.29-22.83,0.6
		c-5.64,5.16-11.13,10.49-16.45,15.97c-16.55,17.04-32.98,34.18-49.61,51.44c2.96,2.58,6.84,5.53,10.2,8.99
		C443.7,559.96,446.81,564.12,451.53,569.75z M395.91,631.39c17.74,0,31.33-13.64,31.25-31.39c-0.08-17.41-14.35-31.49-31.67-31.25
		c-16.8,0.23-30.85,14.4-30.97,31.22C364.41,617.46,378.32,631.38,395.91,631.39z"/>
	<path d="M897.17,955.05c3.84-3.64,6.29-5.84,8.61-8.17c23.62-23.59,47.21-47.22,70.84-70.79c2.37-2.37,4.78-4.85,7.6-6.6
		c6.93-4.32,13.7-3.16,19.16,2.53c5.46,5.7,6.27,12.49,1.67,19.23c-1.88,2.75-4.37,5.11-6.74,7.49
		c-27.7,27.74-55.42,55.46-83.15,83.17c-14.37,14.36-19.44,14.31-34.06-0.32c-8.01-8.01-16.11-15.94-23.99-24.09
		c-7.02-7.26-7.35-16.53-1.14-22.86c6.41-6.53,15.27-6.41,22.9,0.51c3.4,3.08,6.64,6.36,9.75,9.74
		C891.5,948.02,894.11,951.39,897.17,955.05z"/>
	<path d="M897.63,625.44c22.84-22.85,44.47-44.5,66.11-66.13c5.85-5.85,11.47-11.96,17.65-17.44c7.15-6.35,16.14-5.81,22.19,0.68
		c5.9,6.33,6.17,14.79-0.4,21.43c-31.27,31.58-62.69,63.01-94.28,94.27c-6.43,6.36-14.9,6.25-21.47-0.01
		c-10.87-10.35-21.49-20.98-31.8-31.9c-5.86-6.21-5.24-15.99,0.47-21.59c6.09-5.98,14.85-6.41,21.51-0.19
		C884.32,610.81,890.35,617.78,897.63,625.44z"/>
	<path d="M897.44,296.21c28.37-28.41,55.13-55.29,81.99-82.07c8.48-8.45,19.34-8.57,25.48-0.58c5,6.51,4.79,14.35-1.58,20.77
		c-31.04,31.29-62.19,62.45-93.49,93.48c-7.56,7.5-15.66,7.34-23.48-0.14c-10.17-9.73-20.15-19.67-29.89-29.83
		c-6.65-6.94-6.41-17.1-0.1-23c6.3-5.88,15.2-5.73,22.14,1.04C884.85,282.06,890.61,288.82,897.44,296.21z"/>
</g>
</svg>
