<?xml version="1.0" encoding="utf-8"?>
<!-- Generator: Adobe Illustrator 25.2.1, SVG Export Plug-In . SVG Version: 6.00 Build 0)  -->
<svg version="1.1" id="Layer_1" xmlns="http://www.w3.org/2000/svg" xmlns:xlink="http://www.w3.org/1999/xlink" x="0px" y="0px"
	 viewBox="0 0 1200 1200" style="enable-background:new 0 0 1200 1200;" xml:space="preserve">
<g>
	<path d="M333.1,105.4c14.02,6.11,19.86,16.93,18.83,32c-0.4,5.86-0.03,11.77-0.09,17.66c-0.13,12.35-4.45,21.47-16.38,27.62
		c-3.78,1.95-4.04,10.7-5.91,16.34c0.87,0.51,1.74,1.03,2.62,1.54c2.33-1.48,4.79-2.78,6.97-4.46
		c24.06-18.57,48.09-37.17,72.08-55.83c21.58-16.78,37.53-16.91,59.18-0.17C571.2,218.07,672.01,296.07,772.8,374.07
		c13.56,10.5,14.86,18.78,5.05,32.46c-5.9,8.23-11.97,16.34-18.05,24.45c-10.95,14.59-20.3,16.02-34.72,5.14
		c-11.71-8.84-23.27-17.88-36.9-28.36c0,8.62,0.06,15.52-0.01,22.42c-0.14,12.33-5.41,19.25-14.63,19.36
		c-9.63,0.12-14.69-6.28-14.75-18.87c-0.06-13.08,0.21-26.17-0.18-39.24c-0.1-3.15-1.34-7.41-3.61-9.17
		c-70.92-55.19-142.03-110.12-213.99-165.78c-13.4,10.28-26.83,20.52-40.18,30.85c-57.38,44.4-114.78,88.77-171.95,133.44
		c-2.98,2.33-5.45,7.36-5.45,11.13c-0.27,159.28-0.23,318.57-0.23,477.85c0,1.92,0,3.84,0,6.31c8.17,0.73,15.88,1.07,23.48,2.16
		c25.62,3.67,45.83,16.54,60.66,37.52c3.61,5.1,7.16,6.87,12.99,5.52c3.15-0.73,6.78-1.77,9.64-0.89
		c12.85,3.95,21.38-0.79,31.62-9.34c52.22-43.64,134.16-14.2,147.54,52.55c2.32,11.58,1.33,23.82,1.9,36.41
		c2.27,0.12,5.13,0.36,7.99,0.41c19.06,0.33,28.86,9.95,29.19,29.05c0.2,11.42,0.04,22.85,0.04,34.99c37.33,0,74.06,0,111.93,0
		c0-4.14,0-7.98,0-11.83c0-69.99-0.01-139.99,0.01-209.98c0.01-23.6,8.9-32.49,32.41-32.5c44.81-0.01,89.62-0.03,134.43,0.01
		c21.58,0.02,31.09,9.4,31.14,31c0.1,40.23,0.05,80.46-0.01,120.69c0,3.25-0.27,6.55-0.89,9.73c-1.46,7.5-6.36,11.21-13.85,11.15
		c-7.97-0.06-12.83-4.23-13.98-12.17c-0.51-3.54-0.57-7.16-0.58-10.75c-0.04-35.98-0.02-71.96-0.02-107.93c0-3.83,0-7.66,0-11.88
		c-46.77,0-92.13,0-138.37,0c0,74.88,0,149.5,0,224.65c45.8,0,91.45,0,138.42,0c0-8.28-0.24-16.38,0.06-24.46
		c0.41-10.97,5.11-16.34,13.95-16.63c9.3-0.31,14.63,5.2,15.2,16.46c0.39,7.81,0.08,15.66,0.08,24.32c39.57,0,78.55,0,118.17,0
		c0.16-2.81,0.47-5.65,0.47-8.49c0.03-96.16,0.09-192.32-0.2-288.48c-0.01-4.2-2-9.95-5.1-12.37
		c-70.31-54.9-140.91-109.43-212.29-164.67c-15.43,11.85-30.93,23.68-46.35,35.61c-79.09,61.2-158.15,122.43-237.23,183.65
		c-14.52,11.24-24.22,9.89-35.55-4.87c-5.17-6.74-10.36-13.47-15.57-20.18c-12.79-16.5-11.9-25.15,4.44-37.85
		c35.61-27.68,71.32-55.21,107-82.79c38.52-29.78,77.02-59.6,115.64-89.26c5.01-3.85,7.62-7.85,7.4-14.63
		c-0.56-17.64-0.27-35.32-0.15-52.98c0.07-11.1,5.19-17.15,14.21-17.29c9-0.14,14.81,5.99,15.08,16.75
		c0.3,12.38,0.07,24.77,0.07,39.32c11.82-9.01,22.3-16.98,32.75-24.99c4.15-3.18,8.17-6.53,12.35-9.67
		c16.92-12.69,34.76-12.96,51.39-0.11c102.14,78.94,204.21,157.96,306.18,237.12c4.46,3.46,7.73,8.46,11.55,12.74
		c0,3.27,0,6.54,0,9.81c-7.98,11.12-15.86,22.32-23.95,33.36c-11.58,15.8-21.25,16.98-36.91,4.8
		c-11.23-8.73-22.51-17.39-34.73-26.82c0,95.23,0,188.83,0,283.13c5.47,0,10.32-0.02,15.17,0c9.16,0.05,18.36-0.42,27.45,0.34
		c8.76,0.72,13.94,7.06,13.72,15.01c-0.22,7.87-5.98,13.42-14.68,13.98c-2.93,0.19-5.89,0.07-8.83,0.07c-301.57,0-603.14,0-904.71,0
		c-3.27,0-6.55,0.08-9.81-0.07c-10.97-0.52-22.99-8.76-22.76-19.23c0.48-22.37-7.19-45.65,5.67-67.08c1.17-1.96,0.64-5.02,0.66-7.58
		c0.15-23.25,10.58-40.39,30.21-52.61c3.94-2.46,7.71-6.76,9.37-11.05c7.59-19.61,19.75-35.44,37.78-46.05
		c6.43-3.78,7.92-7.86,7.91-14.74c-0.18-152.42-0.14-304.84-0.16-457.26c0-3.1-0.27-6.2-0.49-10.79
		c-13.53,10.41-25.77,20.04-38.24,29.36c-11.79,8.81-21.71,7.77-30.66-3.61c-9.25-11.76-17.9-24-26.81-36.03c0-3.27,0-6.54,0-9.81
		c4.67-5.25,8.69-11.32,14.12-15.61c28.71-22.67,57.84-44.8,86.59-67.41c2.64-2.07,5.16-6.19,5.19-9.39
		c0.37-35.3,0.34-70.6,0.02-105.9c-0.02-2.68-2.49-6.51-4.9-7.79c-9.99-5.32-15-13.15-14.84-24.43c0.09-6.54,0.6-13.14-0.12-19.6
		c-1.71-15.27,4.51-25.77,17.96-32.46C245.44,105.4,289.27,105.4,333.1,105.4z M139,1000.43c3.53,0,7.07,0,10.62,0
		c37.28,0,74.56-0.05,111.84,0.03c12.42,0.03,19.1,5.33,19.16,14.74c0.06,9.66-6.21,14.61-18.87,14.62
		c-39.9,0.04-79.79,0.02-119.69,0.02c-3.47,0-6.95,0-10.4,0c0,12.5,0,23.71,0,34.86c129.19,0,257.61,0,386.46,0
		c0-11.71,0-22.94,0-34.86c-4.32,0-7.88,0-11.44,0c-55.27,0-110.53,0.03-165.8-0.02c-11.9-0.01-18.03-5.04-18.07-14.42
		c-0.04-9.16,6.49-14.68,17.99-14.93c7.81-0.17,15.63-0.03,23.74-0.03c4.47-14.3,1.69-26.55-7.61-37.02
		c-9.76-10.99-22.08-15.86-36.95-12.72c-22.49,4.75-22.49,4.73-34.1-14.51c-12.26-20.33-36.9-32.65-58.91-29.47
		c-26.39,3.83-47.12,21.41-52.4,46.19c-2.25,10.57-7.27,16.5-17.33,19.92C144.54,977.14,138.78,986.41,139,1000.43z M142.93,409.6
		c1.9-1.43,3.19-2.37,4.45-3.34c92.01-71.17,184.04-142.32,276.03-213.51c15.78-12.21,18.82-12.51,33.18-1.41
		c70.57,54.56,141.11,109.17,211.66,163.75c23.39,18.1,46.81,36.16,70.7,54.62c4.1-5.64,7.63-10.5,11.27-15.51
		c-2.19-1.89-3.36-2.99-4.63-3.98c-97.68-75.6-195.36-151.19-293.04-226.77c-10.82-8.37-12.52-8.28-23.71,0.38
		c-77,59.6-154.02,119.18-231.02,178.77c-22.19,17.17-44.37,34.38-66.86,51.81C135.21,399.8,138.99,404.6,142.93,409.6z
		 M1068.37,768.09c-2.32-1.93-3.54-3-4.82-4c-98.66-76.37-197.36-152.69-295.93-229.16c-6.83-5.3-12.07-3.92-18.27,0.89
		c-80.27,62.24-160.66,124.33-241,186.48c-19.55,15.12-39.05,30.32-59.2,45.97c4.27,5.47,7.98,10.22,11.73,15.02
		c2-1.28,3.15-1.9,4.17-2.69c93.25-72.15,186.5-144.31,279.73-216.49c12.31-9.53,16.18-9.57,28.37-0.13
		c78.77,60.98,157.53,121.97,236.32,182.93c15.65,12.11,31.39,24.11,47.62,36.58C1061.15,777.95,1064.56,773.29,1068.37,768.09z
		 M478.88,1000.12c7.73-29.55-3.88-57.97-28.8-71.99C424.7,913.85,394.93,918,374.55,939c16.91,16.76,23.36,37.57,21.26,61.12
		C424.3,1000.12,451.33,1000.12,478.88,1000.12z M233.72,184.28c0,31.06,0,61.16,0,91.29c1.19,0,1.99,0.26,2.37-0.04
		c20.66-15.87,41.33-31.73,61.84-47.78c1.8-1.41,3.61-4.1,3.67-6.25c0.35-12.27,0.17-24.55,0.17-37.22
		C278.63,184.28,256.58,184.28,233.72,184.28z M213.78,135.28c0,6.46,0,12.44,0,18.56c36.34,0,72.09,0,107.86,0
		c0-6.65,0-12.61,0-18.56C285.25,135.28,249.72,135.28,213.78,135.28z"/>
	<path d="M539.64,471.43c0,38.59,0.05,77.19-0.02,115.78c-0.04,20.92-9.49,30.22-30.6,30.23c-45.46,0.03-90.92,0.04-136.38,0
		c-20.83-0.02-30.61-9.59-30.63-30.46c-0.09-77.19-0.08-154.37,0-231.56c0.02-21.42,9.04-30.27,30.35-30.28
		c46.44-0.02,92.88-0.04,139.33,0.01c18.2,0.02,27.84,9.39,27.91,27.55C539.74,392.28,539.64,431.86,539.64,471.43z M371.84,413.84
		c18.59,0,35.99,0,53.37,0c0-20.15,0-39.46,0-58.61c-18.26,0-35.67,0-53.37,0C371.84,375.03,371.84,394.13,371.84,413.84z
		 M455.47,355.04c0,18.64-0.12,36.21,0.17,53.77c0.03,1.92,2.35,5.43,3.67,5.46c16.76,0.37,33.53,0.25,50.39,0.25
		c0-20.78,0-39.88,0-59.48C491.69,355.04,474.22,355.04,455.47,355.04z M425.45,587.65c0-20.41,0-39.82,0-59.74
		c-18.05,0-35.49,0-53.37,0c0,20.11,0,39.8,0,59.74C390.04,587.65,407.23,587.65,425.45,587.65z M456.41,527.79
		c0,20.5,0,40.11,0,59.43c18.4,0,35.82,0,53.11,0c0-20.24,0-39.65,0-59.43C491.59,527.79,474.38,527.79,456.41,527.79z
		 M425.49,444.61c-18.48,0-35.7,0-53.44,0c0,17.97,0,35.37,0,52.77c18.22,0,35.72,0,53.44,0
		C425.49,479.6,425.49,462.45,425.49,444.61z M456,444.51c0,18.14,0,35.3,0,52.74c18.3,0,36.03,0,53.56,0c0-17.94,0-35.12,0-52.74
		C491.67,444.51,474.47,444.51,456,444.51z"/>
	<path d="M727.48,944.72c-0.01,5.88,0.32,11.78-0.09,17.63c-0.63,9.16-6.74,14.79-15.12,14.54c-7.9-0.24-13.72-5.88-14-14.6
		c-0.36-11.42-0.34-22.86-0.03-34.28c0.25-9.05,6.63-15.43,14.57-15.41c7.84,0.01,14.08,6.41,14.61,15.48
		C727.76,933.61,727.49,939.17,727.48,944.72z"/>
</g>
</svg>
