<?xml version="1.0" encoding="utf-8"?>
<!-- Generator: Adobe Illustrator 25.2.1, SVG Export Plug-In . SVG Version: 6.00 Build 0)  -->
<svg version="1.1" id="Layer_1" xmlns="http://www.w3.org/2000/svg" xmlns:xlink="http://www.w3.org/1999/xlink" x="0px" y="0px"
	 viewBox="0 0 1200 1200" style="enable-background:new 0 0 1200 1200;" xml:space="preserve">
<g>
	<path d="M1091.28,1043.73c0,10.57,0,21.13,0,31.7c-20.75,0-41.5,0-60.37,0c-4.96,6.08-8.94,10.96-12.92,15.85
		c-25.09,0-50.18,0-75.28,0c-3.99-4.87-7.99-9.75-13.02-15.88c-1.98,0-5.92,0-9.86,0c-142.86,0-285.71,0.06-428.57-0.12
		c-10.15-0.01-20.52-0.72-30.42-2.85c-68.46-14.72-114.34-71.8-114.36-141.68c-0.03-90.4-0.01-180.8-0.01-271.19
		c0-3.82,0-7.64,0-12.01c-80.14,0-158.95,0-237.75,0c0-10.57,0-21.13,0-31.7c136,0.01,272,0.02,408,0.04
		c32.05,0.01,51.52,19.64,51.55,51.93c0.02,20.47-0.23,40.94,0.09,61.4c0.77,49.06,34.91,94.47,82.95,103.94
		c27.43,5.41,56.34,3.34,84.59,4.54c2.14,0.09,4.32-0.56,6.76-0.91c0-10.83,0-21.05,0-31.27c0-10.13,0-20.26,0-31.23
		c-21.46,0-41.85,0.09-62.24-0.02c-28.14-0.15-48.55-20.63-48.68-48.82c-0.09-20.47,0.1-40.93-0.05-61.4
		c-0.46-62.63-49.24-111.48-112.02-111.56c-136.99-0.18-273.98-0.04-410.97-0.02c0-10.57,0-21.13,0-31.7c79.02,0,158.03,0,237.05,0
		c0-21.78,0-42.34,0-63.39c-79.48,0-158.27,0-237.05,0c0-10.57,0-21.13,0-31.7c79.02,0,158.03,0,237.05,0c0-21.78,0-42.34,0-63.39
		c-79.48,0-158.27,0-237.05,0c0-10.57,0-21.13,0-31.7c79.06,0,158.12,0,237.72,0c0-22.07,0.24-42.83-0.11-63.57
		c-0.16-9.31-6.45-15.44-15.82-15.59c-20.77-0.32-41.54-0.1-62.11-0.1c-6.07,14.31-8.41,15.82-24.04,15.83
		c-16.5,0.01-33.02-0.44-49.5,0.15c-12.04,0.43-20.77-2.82-23.43-15.96c-21.16,0-41.93,0-62.7,0c0-10.57,0-21.13,0-31.7
		c20.93,0,41.86,0,62.75,0c0-21.79,0-42.32,0-63.39c-21.37,0-42.06,0-62.75,0c0-10.57,0-21.13,0-31.7c20.75,0,41.51,0,60.29,0
		c5.03-6.13,9.02-10.99,13.01-15.85c25.09,0,50.18,0,75.28,0c3.99,4.89,7.98,9.77,12.98,15.89c19.2,0,40.31-0.07,61.42,0.02
		c22.11,0.09,43.27,4.81,62.73,15.25c50.88,27.3,77.21,70.08,78.67,127.82c0.52,20.68,0.08,41.38,0.08,62.3
		c122.01,0,242.94,0,364.53,0c0-74.17,0-147.73,0-221.28c10.57,0,21.13,0,31.7,0c0,168.81,0,337.63,0,506.45
		c21.77,0,42.34,0,63.39,0c0-169.29,0-337.87,0-506.45c10.57,0,21.13,0,31.7,0c0,73.75,0,147.5,0,221.87c43.1,0,84.94,0,126.78,0
		c0,10.57,0,21.13,0,31.7c-42.05,0-84.09,0-126.12,0c0,21.78,0,42.33,0,63.39c42.5,0,84.31,0,126.12,0c0,10.57,0,21.13,0,31.7
		c-42.05,0-84.11,0-126.48,0c0,53.25,0,105.25,0,157.82c12.61,2.59,16.14,11.12,15.67,23.22c-0.62,16.13-0.59,32.31-0.01,48.44
		c0.45,12.43-1.93,22.35-15.44,24.62c0,8.52,0,15.9,0,20.69c7.15-1.77,14.26-4.76,21.49-5.09c16.77-0.76,33.62,0.21,50.41-0.39
		c12.05-0.43,20.7,2.9,23.35,15.96c10.62,0,20.82,0,31.02,0c0,10.57,0,21.13,0,31.7c-10.38,0-20.75,0-31.07,0
		c0,21.8,0,42.31,0,63.39c10.79,0,20.93,0,31.07,0c0,10.57,0,21.13,0,31.7c-10.21,0-20.43,0-31.01,0
		c-2.71,13.12-11.42,16.4-23.47,15.96c-16.48-0.6-33-0.14-49.5-0.15c-15.6-0.01-17.99-1.55-23.93-15.6c-41.44,0-82.99,0-124.99,0
		c-2.7,12.77-11.31,16.19-23.38,15.75c-16.81-0.61-33.66-0.14-50.49-0.16c-14.58-0.01-17.21-1.79-23.05-15.85
		c-21.21,0-42.64,0.09-64.08-0.02c-76.45-0.39-140.42-64.43-140.72-140.85c-0.08-20.79-0.13-41.59,0.04-62.38
		c0.07-9.01-3.32-17.04-12.19-17.76c-16.88-1.36-33.94-0.39-51.33-0.39c0,4.66,0,8.27,0,11.88c0,88.45,0,176.91,0,265.36
		c0,18.92,4.47,23.47,23.05,23.47c141.92,0,283.84,0,425.76,0c3.28,0,6.56,0,9.62,0c5.86-14.09,8.44-15.83,23.03-15.84
		c16.83-0.01,33.68,0.45,50.49-0.15c12.05-0.43,20.77,2.82,23.42,15.96c21.17,0,41.95,0,62.72,0c0,10.57,0,21.13,0,31.7
		c-20.93,0-41.86,0-62.75,0c0,21.79,0,42.32,0,63.39C1049.9,1043.73,1070.59,1043.73,1091.28,1043.73z M473.66,520.8
		c16.47,0,32.24-0.04,48.01,0.01c77.63,0.25,141.43,64.09,141.67,141.8c0.06,20.79-0.11,41.57,0.06,62.36
		c0.09,10.78,5.81,17.4,15.89,17.57c20.76,0.36,41.53,0.11,62.1,0.11c6.07-14.3,8.4-15.82,23.99-15.82
		c14.52-0.01,29.04-0.06,43.55,0.02c10.1,0.05,20.82-2.17,28.46,9.72c0-9.94,0-17.47,0-24.87c-13.47-5.16-15.47-8.03-15.49-22.03
		c-0.02-16.83,0.44-33.67-0.15-50.48c-0.43-12.24,2.47-21.51,15.17-23.91c0-53.12,0-105.38,0-157.44c-121.48,0-242.13,0-363.27,0
		C473.66,478.66,473.66,498.99,473.66,520.8z M378.1,647.99c0,3.68,0,6.88,0,10.09c0,90.43-0.06,180.87,0.02,271.3
		c0.06,65.85,48.43,114.33,114.21,114.36c143.24,0.08,286.48,0.02,429.73,0.02c3.46,0,6.93,0,10.27,0c0-21.88,0-42.22,0-63.46
		c-4.38,0-8.26,0-12.13,0c-142.25,0-284.5,0.01-426.76-0.01c-32.25,0-51.86-19.52-51.86-51.6c-0.02-89.77-0.01-179.55-0.01-269.32
		c0-3.8,0-7.61,0-11.39C419.75,647.99,399.41,647.99,378.1,647.99z M441.06,520.39c0.24-2.07,0.46-3.03,0.46-4
		c0.01-84.14,0.9-168.3-0.39-252.42c-0.67-43.3-22.56-75.58-61.05-95.85c-35.91-18.9-74.63-9.64-112.91-12.09
		c0,11.76,0,21.94,0,32.13c0,10.4,0,20.81,0,31.53c21.02,0,40.47-0.02,59.92,0c31.34,0.04,51,19.84,51,51.44
		c0.02,79.19,0.01,158.39,0.01,237.58c0,3.82,0,7.64,0,11.67C399.75,520.39,420.09,520.39,441.06,520.39z M473.83,362.44
		c0,21.48,0,42.05,0,62.55c121.57,0,242.49,0,363.1,0c0-21.31,0-41.88,0-62.55C715.65,362.44,595.19,362.44,473.83,362.44z
		 M932.84,710.9c-11.44,0-21.6,0-31.77,0c-10.41,0-20.81,0-31.69,0c0,14.24,0,27.06,0,39.88c-0.01,19-4.24,23.32-22.92,23.53
		c-2.81,0.03-5.61,0.38-8.29,0.58c0,21.26,0,41.58,0,62.34c42.15,0,83.8,0,125.78,0c0-21.09,0-41.65,0-62.94
		c-3.48,0-6.38,0.01-9.28,0c-16.89-0.1-21.81-4.96-21.83-21.6C932.82,739.21,932.84,725.73,932.84,710.9z M234.84,235.09
		c0-31.93,0-63.06,0-93.91c-10.73,0-20.75,0-30.54,0c0,31.69,0,62.58,0,93.91C214.59,235.09,224.37,235.09,234.84,235.09z
		 M853.93,678.53c32.06,0,63.18,0,94.26,0c0-10.52,0-20.3,0-30.46c-31.61,0-62.74,0-94.26,0
		C853.93,658.41,853.93,668.18,853.93,678.53z M805.5,853.12c0-31.6,0-62.72,0-94.03c-10.57,0-20.57,0-30.49,0
		c0,31.78,0,62.91,0,94.03C785.52,853.12,795.3,853.12,805.5,853.12z M1027.42,853.18c0-32.02,0-62.91,0-94.14
		c-10.51,0-20.51,0-30.6,0c0,31.72,0,62.85,0,94.14C1007.28,853.18,1017.05,853.18,1027.42,853.18z M965.16,964.91
		c0,31.92,0,63.04,0,93.91c10.73,0,20.74,0,30.55,0c0-31.69,0-62.58,0-93.91C985.42,964.91,975.64,964.91,965.16,964.91z"/>
</g>
</svg>
