<?xml version="1.0" encoding="utf-8"?>
<!-- Generator: Adobe Illustrator 25.2.1, SVG Export Plug-In . SVG Version: 6.00 Build 0)  -->
<svg version="1.1" id="Layer_1" xmlns="http://www.w3.org/2000/svg" xmlns:xlink="http://www.w3.org/1999/xlink" x="0px" y="0px"
	 viewBox="0 0 1200 1200" style="enable-background:new 0 0 1200 1200;" xml:space="preserve">
<g>
	<path d="M284.22,94.74c15.76,2.9,31.98,4.3,47.2,8.95c94.55,28.88,146.1,129.89,114.71,223.9c-2,5.99-1.74,9.9,3.19,14.57
		c12.64,11.97,24.56,24.71,37.84,38.23c23.17-27.76,48.64-41.04,81.97-11.34c15.16-15.83,29.91-32.11,45.62-47.41
		c17.64-17.17,39.38-21.96,62.92-16.2c31.59,7.73,51.78,34.53,51.76,67.05c0,1.89,0,3.78,0,5.61c59.58,7.26,78.46,30.24,73.62,89.73
		c42.61,7.7,64.47,33.01,63.81,77.46c6.25,1.02,12.75,1.51,18.92,3.19c45.18,12.3,60.88,67.66,28.42,101.37
		c-25.3,26.28-51.46,51.75-78.1,78.44c8.43,8.3,16.52,16.9,25.42,24.57c2.08,1.79,7.2,1.36,10.42,0.35
		c56.24-17.65,109.2-10.75,157.76,22.59c42.27,29.02,66.56,69.81,73.77,120.68c0.27,1.87,1.17,3.65,1.78,5.48
		c0,11.84,0,23.68,0,35.53c-0.67,2.83-1.19,5.7-2.03,8.47c-3.19,10.61-5.11,21.88-10.05,31.61c-7.86,15.48-23.66,19.1-38.47,9.91
		c-6.05-3.76-11.41-8.83-16.5-13.89c-24.95-24.82-49.78-49.77-74.52-74.79c-21.98-22.23-69.47-18.9-76.76,18.91
		c-3.47,18.02,1.39,33.76,14.63,46.79c25.31,24.92,50.5,49.97,75.82,74.88c10.21,10.05,19.11,21.05,14.82,36.33
		c-4.27,15.24-17.72,20.51-31.5,23.45c-56.03,11.96-106.91,0.49-151.81-35.29c-18.71-14.91-33.45-33.41-44.45-54.72
		c-4.27-8.28-1.98-16.31,5.25-20.43c7.37-4.21,14.94-2.02,20.33,5.94c1.1,1.63,2.01,3.38,3.03,5.07
		c33.03,54.74,82.03,78.2,145.07,73.58c7.94-0.58,15.74-3.11,25.38-5.1c-12.56-12.63-23.43-23.52-34.27-34.46
		c-18.52-18.68-38.12-36.43-55.27-56.3c-28.03-32.48-21.77-86.51,11.11-108.66c31.75-21.39,73-17.07,101.85,11.33
		c25.08,24.69,49.6,49.94,74.41,74.9c2.18,2.19,4.6,4.14,7.51,6.74c1.27-3.81,2.38-6.23,2.89-8.76
		c11.97-59.1-4.34-109.37-51.19-147.01c-44.78-35.98-95.69-41.93-149.27-20.68c-9.76,3.87-17.39,2.91-24.79-4.99
		c-11.01-11.76-22.41-23.2-34.31-34.05c-3.63-3.31-9.39-5.82-14.26-5.99c-31.48-1.1-56.98-24.08-60.14-55.61
		c-0.8-7.96-0.12-16.07-0.12-24.1c-32.23-4.23-59.39-24.66-63.79-68.28c-41.76,6.07-77.01-10.34-108.49-33.12
		c-4.5,15.32-7.79,30.07-13.29,43.94c-3.16,7.96-2.68,12.28,3.5,18.41c75.02,74.3,149.64,148.99,224.54,223.41
		c7.56,7.51,10.76,14.58,5.88,25.24c-8.87,19.35-12.12,40.09-12.08,61.35c0.02,11.18-5.03,17.46-13.91,17.78
		c-9.38,0.34-15.7-6.07-15.45-17.55c0.26-11.77,1.43-23.59,3.12-35.25c1.7-11.71,8.95-24.75,5.67-34.47
		c-3.58-10.62-16.46-18.1-25.28-26.95c-0.23-0.23-0.45-0.62-0.72-0.66c-3.37-0.51-7.54-2.49-10-1.21
		c-28.92,15.03-59,19.12-90.64,10.92c-14.69-3.81-27.31-0.03-37.97,10.47c-33.97,33.47-67.92,66.95-101.64,100.67
		c-1.63,1.63-2,5.93-1.19,8.4c6.78,20.57,2.04,38.04-13.13,53.12c-20.53,20.4-41.3,40.58-61.35,61.45
		c-12.53,13.04-25.54,24.54-44.3,27.01c-1.32,0-2.63,0-3.95,0c-12.65-2.64-24.3-6.77-33.88-16.36
		c-68.31-68.4-136.94-136.46-205.25-204.85c-22.05-22.08-21.62-50.25,0.48-72.47c23.42-23.54,47.16-46.77,70.44-70.45
		c15.33-15.6,32.93-20.24,53.92-14.15c3.07,0.89,8.18-0.75,10.65-3.04c11.55-10.74,22.96-21.7,33.58-33.35
		c20.55-22.55,41.68-44.73,60.43-68.73c18.45-23.62,26.59-51.34,25.44-81.98c-0.48-12.83,2.77-25.95,5.49-38.69
		c1.19-5.58,0.49-8.9-3.52-12.76c-13.25-12.78-26.3-25.78-39.08-39.03c-4.12-4.28-7.52-5.59-13.6-3.51
		c-24.5,8.36-49.64,11.88-75.59,8.37c-73.09-9.89-122.89-49.06-148.32-118.36c-4.46-12.16-6.47-25.21-9.62-37.85
		c0-11.84,0-23.68,0-35.53c0.68-3.15,1.16-6.35,2.08-9.43c3.05-10.3,4.95-21.21,9.7-30.67c8.01-15.95,24.04-19.77,39.13-10.31
		c5.76,3.61,10.79,8.54,15.65,13.38c25.17,25.04,49.98,50.45,75.32,75.31c13.57,13.31,30.19,16.16,48.37,11.5
		c16.2-4.15,25-15.25,28.08-30.9c3.47-17.63-1.34-33.28-14.14-46.02c-24.94-24.8-50.39-49.09-74.93-74.29
		c-6.86-7.04-13.61-15.82-16.26-24.99c-4.67-16.19,6.65-29.63,27.9-34.88c12.66-3.12,25.78-4.37,38.69-6.46
		C277.64,94.74,280.93,94.74,284.22,94.74z M275.91,749.91c4.35,3.67,8.09,6.41,11.35,9.63c17.53,17.35,35.26,34.52,52.14,52.49
		c3.4,3.62,5.6,10.94,4.42,15.55c-1.07,4.17-7.33,9.4-11.63,9.72c-4.93,0.36-11.32-3.04-15.18-6.77
		c-23.17-22.39-45.77-45.38-68.62-68.1c-11.95-11.88-20.94-11.86-32.93,0.07c-22.85,22.73-45.64,45.52-68.43,68.31
		c-12.86,12.86-12.9,21.46,0.01,34.34c67.03,66.92,134.09,133.81,201.16,200.68c12.07,12.03,21.59,12,33.7-0.06
		c22.61-22.51,45.17-45.06,67.73-67.61c13.17-13.17,13.17-21.74-0.07-34.99c-25.58-25.58-51.22-51.1-76.81-76.68
		c-9.02-9.02-10.32-18.27-3.64-24.82c6.96-6.83,15.02-5.54,24.72,4.1c20.99,20.86,41.94,41.78,62.92,62.65
		c2.47,2.46,5.04,4.81,8.3,7.91c31.7-31.99,62.56-63.44,93.82-94.5c12.62-12.54,26.07-25.17,44.62-27.18
		c12.16-1.32,24.88-0.01,37.07,1.91c24.24,3.81,43.03,1.47,56.72-7.64c-55.57-55.96-111.51-112.29-166.33-167.49
		c-3.89,3.31-8.21,7.38-12.94,10.91c-6.21,4.65-12.97,5.02-18.93-0.21c-6.27-5.5-7.28-12.3-2.35-19.35c2.06-2.95,5.05-5.27,6.94-8.3
		c8.28-13.29,18.32-25.94,23.97-40.3c9.37-23.82,10.36-48.14-7.4-69.79c-7.35-8.97-7.63-17.73-1-23.51
		c6.61-5.76,15.06-4.46,23.4,3.79c11.22,11.1,22.4,22.25,33.52,33.46c14.9,15,32.65,25.32,52.73,31.5
		c16.95,5.21,34.12,7.28,50.89-0.82c14.98-7.23,17.15-17.25,6.53-29.13c-3.07-3.43-6.18-6.83-9.44-10.08
		c-43.48-43.49-86.98-86.97-130.51-130.41c-9.97-9.95-16.6-9.89-26.68,0.15c-27.02,26.93-53.6,54.32-81.12,80.73
		c-21.56,20.69-31.72,45.18-30.32,74.92c1.27,26.94-5.83,51.94-18.75,75.43c-16.5,30-39.2,55.02-63.23,78.99
		C309.97,715.62,293.8,731.95,275.91,749.91z M399.01,465.42c22.88-22.08,44.79-43.23,67.27-64.93
		c-15.53-15.5-30.63-30.55-45.71-45.61c-11.31-11.3-11.69-12.91-5.68-27.6c10.72-26.21,14.07-53.38,8.71-81.11
		c-13.73-71.1-70.07-118.98-142.56-120.8c-14.05-0.35-28.18,2.78-42.27,4.31c1.83,5.55,3.85,8.01,6.09,10.24
		c23.77,23.66,47.63,47.24,71.34,70.97c4.63,4.63,9.13,9.51,12.98,14.79c27.7,37.88,16.82,105.82-43.13,116.77
		c-26.02,4.75-49.93-1.02-69.22-19.8c-26.15-25.46-51.64-51.6-77.44-77.43c-2.4-2.4-4.99-4.6-7.83-7.19
		c-7.78,18.01-9.43,47.43-4.45,70.19c20.12,91.96,113.44,141.51,200.79,106.27c10.7-4.32,18.34-3,26.25,5.45
		C369.16,435.95,384.94,451.24,399.01,465.42z M837.13,537.38c-0.29-16.63-7.59-29.12-22.93-35.85
		c-16.11-7.07-31.05-3.83-43.55,8.28c-18.18,17.62-36.03,35.6-53.81,53.63c-16.17,16.4-16.78,40.23-1.74,55.66
		c15.36,15.76,39.61,15.68,56.45-0.71c18.15-17.66,35.95-35.68,53.79-53.66C832.77,557.24,837.22,548.29,837.13,537.38z M903.64,609
		c-1.58-13.34-9.45-25.48-21.02-30.62c-12.12-5.38-26.12-2.82-36.26,7.22c-23.1,22.86-46.08,45.85-68.99,68.91
		c-13.65,13.74-14.31,32.66-1.91,45.77c12.79,13.51,32.4,13.91,46.51,0.12c23.71-23.18,47.3-46.51,70.22-70.46
		C897.49,624.39,899.9,616.06,903.64,609z M665.69,465.94c16.87,17.64,34.44,36.01,52.4,54.79c15.98-16.09,32.03-31.64,47.38-47.87
		c13.93-14.73,13.57-37.21,0.04-51.88c-13.67-14.83-36.87-17.95-51.51-4.66C697.05,431.71,681.91,449.1,665.69,465.94z
		 M643.26,441.83c16.03-15.55,33.32-30.78,48.71-47.73c12.72-14,10.08-36.62-3.56-50.16c-13.34-13.25-36.55-15.85-50.3-3.33
		c-16.93,15.42-32.12,32.75-47.12,48.29C608.24,406.37,625.91,424.27,643.26,441.83z"/>
</g>
</svg>
