<?xml version="1.0" encoding="utf-8"?>
<!-- Generator: Adobe Illustrator 25.2.1, SVG Export Plug-In . SVG Version: 6.00 Build 0)  -->
<svg version="1.1" id="Layer_1" xmlns="http://www.w3.org/2000/svg" xmlns:xlink="http://www.w3.org/1999/xlink" x="0px" y="0px"
	 viewBox="0 0 1200 1200" style="enable-background:new 0 0 1200 1200;" xml:space="preserve">
<g>
	<path d="M1123.37,318.04c-7.51,18.56-21.48,24.81-41.11,24.67c-81.08-0.59-162.17-0.25-243.26-0.25c-3.73,0-7.46,0-11.51,0
		c-7.85,21.44-23.23,31.13-45.63,30.75c-2.73-0.05-6.56,2.96-8.11,5.59c-5.67,9.66-10.56,19.77-15.81,29.68
		c-20.04,37.8-51.56,56.56-94.27,56.71c-6.11,0.02-12.22,0-19.12,0c0,32.05,0,63.5,0,96.12c11.1,0,21.92,0.52,32.68-0.11
		c23.56-1.38,40.28,7.55,48.23,30.96c44.49,0,88.76,0.06,133.03-0.14c2.72-0.01,5.84-1.54,8.05-3.28c4.8-3.78,9.32-7.98,13.62-12.34
		c7.85-7.96,17.06-11.6,28.37-11.49c31.34,0.32,62.69,0.32,94.03,0c10.95-0.11,19.84,3.5,27.61,10.91
		c35.9,34.25,31.87,23.49,32.01,71.37c0.03,11.24,0.15,22.49-0.07,33.73c-0.3,15.03-9.36,26.89-24.22,29.95
		c-7.85,1.62-16.28,1.72-24.29,0.93c-8.88-0.88-13.95-8.12-12.8-16.63c1.17-8.62,6.38-13.21,15.2-13.34
		c4.71-0.07,9.42-0.01,15.45-0.01c0-20.8,0.42-40.78-0.23-60.73c-0.23-7.04-24.59-25.42-31.95-25.44
		c-28.96-0.05-57.92-0.29-86.87,0.25c-4.79,0.09-9.87,3.1-14.19,5.78c-16.07,9.97-21.56,24.41-19.13,43.2
		c1.51,11.66,0.28,23.68,0.28,36.9c19.66,0,38.28-0.01,56.9,0c15.91,0.01,23.11,4.67,23.18,14.98c0.07,10.46-7.49,15.63-22.97,15.65
		c-16.69,0.02-33.39,0.04-50.08-0.01c-21.27-0.06-31.04-7.11-38.03-27.79c-2.71-0.15-5.7-0.45-8.68-0.45
		c-35.09-0.03-70.19,0.12-105.28-0.16c-6.17-0.05-9.43,1.28-12.04,7.53c-6.14,14.75-17.92,23.49-34.01,23.6
		c-58.94,0.39-117.88,0.42-176.81-0.03c-16.49-0.13-28.14-9.34-34.41-24.58c-1.95-4.74-4.3-6.56-9.61-6.52
		c-35.77,0.26-71.55,0.21-107.32,0.05c-5.32-0.02-8.27,0.86-10.26,6.88c-4.69,14.19-15.93,21.2-30.45,21.3
		c-49.74,0.34-99.49,0.42-149.22-0.01c-18.76-0.16-31.81-14.02-32.11-32.8c-0.31-19.41-0.08-38.84-0.05-58.26
		c0-2.04,0.05-4.11,0.42-6.1c3.72-20.05,39.43-49.92,60-50.02c28.28-0.13,56.58,0.68,84.83-0.3c16.81-0.59,30.97,3.1,41.9,16.17
		c7.83,9.36,17.41,11.8,29.57,11.55c39.82-0.81,79.68-0.3,119.73-0.3c7.95-23.45,24.69-32.36,48.25-30.96
		c10.5,0.62,21.07,0.1,32.52,0.1c0-31.96,0-63.38,0-95.23c-13.12-0.83-26.37-0.7-39.3-2.69c-31.98-4.92-55.68-22.41-71.51-50.47
		c-6.34-11.24-11.84-22.96-18.29-34.13c-1.52-2.63-5.38-5.62-8.12-5.58c-22.4,0.37-37.78-9.31-45.61-30.75c-24.51,0-48.68,0-72.85,0
		c-60.64,0-121.29-0.43-181.93,0.25c-19.62,0.22-33.58-6.12-41.09-24.67c0-16.36,0-32.71,0-49.07
		c7.05-18.19,20.13-24.98,39.71-24.88c109.68,0.57,219.36,0.27,329.04,0.28c3.41,0,6.86-0.24,10.21,0.21
		c9.2,1.24,14.95,9.9,12.52,18.59c-2.55,9.1-9.31,11.85-17.95,11.83c-15.59-0.04-31.18-0.01-47.99-0.01
		c0,17.23-0.02,33.48,0.01,49.74c0.02,15.49,2.12,17.58,17.72,17.58c120.24,0.01,240.48,0,360.72,0c2.38,0,5.34,0.85,7.03-0.24
		c3.65-2.35,9.34-5.58,9.48-8.67c0.87-19.24,0.44-38.54,0.44-58.4c-5.35,0-9.41,0-13.47,0c-83.79,0-167.59,0.01-251.38-0.04
		c-4.05,0-8.29,0.04-12.1-1.08c-7.96-2.34-11.47-8.33-10.43-16.45c0.99-7.69,5.77-12.11,13.52-12.9c3.37-0.35,6.81-0.15,10.21-0.15
		c183.26,0,366.51,0.18,549.77-0.27c19.57-0.05,32.66,6.68,39.69,24.87C1123.37,285.33,1123.37,301.68,1123.37,318.04z
		 M599.46,684.88c27.22,0,54.45,0.07,81.67-0.03c12.06-0.04,14.52-2.45,14.59-14.24c0.12-21.44,0.11-42.88,0-64.31
		c-0.06-11.58-2.9-14.34-14.51-14.35c-54.11-0.04-108.21-0.04-162.32,0c-11.66,0.01-14.54,2.76-14.6,14.27
		c-0.12,21.44-0.12,42.88,0,64.31c0.06,11.8,2.55,14.27,14.52,14.32C545.69,684.95,572.57,684.88,599.46,684.88z M458.32,373.22
		c4.14,8.09,7.42,14.74,10.9,21.29c14.25,26.84,36.52,40.2,66.99,40.12c43.27-0.11,86.53,0.1,129.8-0.07
		c37.42-0.15,61.59-23.09,73.94-61.34C646.57,373.22,553.26,373.22,458.32,373.22z M321.75,681.26c0-13.45-1.16-25.79,0.27-37.82
		c2.1-17.61-3.29-30.44-17.88-40.75c-6.11-4.31-11.3-7.33-18.99-7.21c-27.54,0.41-55.08,0.05-82.62,0.29
		c-3.78,0.03-8.16,0.95-11.23,3c-16.42,10.98-26.8,24.81-22.86,46.42c1.68,9.22,0.21,18.99,0.33,28.51c0.03,2.55,0.62,5.1,0.93,7.56
		C220.51,681.26,270.39,681.26,321.75,681.26z M829.32,275.3c0,12.64,0,24.29,0,35.84c88.12,0,175.36,0,262.63,0
		c0-12.38,0-24.05,0-35.84C1004.13,275.3,917.11,275.3,829.32,275.3z M107.77,311.26c88.14,0,175.4,0,263.05,0
		c0-12.23,0-23.87,0-35.75c-88,0-175.27,0-263.05,0C107.77,287.44,107.77,298.87,107.77,311.26z M848.13,623.52
		c-40.94,0-80.95,0-121.23,0c0,10.1,0,19.49,0,29.43c40.54,0,80.56,0,121.23,0C848.13,643.19,848.13,633.82,848.13,623.52z
		 M473.17,623.47c-40.78,0-80.35,0-120.01,0c0,10.28,0,19.89,0,29.42c40.38,0,79.97,0,120.01,0
		C473.17,642.9,473.17,633.53,473.17,623.47z M587.64,465.55c0,32.31,0,63.66,0,95.07c8.81,0,16.77,0,24.73,0
		c0-32.04,0-63.39,0-95.07C603.85,465.55,596.14,465.55,587.64,465.55z"/>
	<path d="M1020.76,792.15c-16.39-2.49-14.46-17.98-18.42-29.51c-3.04-8.83,0.02-15.41,8.13-19.46c8.08-4.03,17.31,0.01,20.47,9.17
		c2.43,7.04,4.37,14.31,5.85,21.62C1038.63,783.04,1031.06,791.96,1020.76,792.15z"/>
	<path d="M161.3,779.1c3.7-11.96,5.62-21.42,9.57-29.93c3.07-6.62,9.75-9.34,17.33-6.54c7.69,2.84,11.65,8.64,10.33,16.64
		c-1.26,7.67-3.31,15.33-6.07,22.59c-2.81,7.39-9.27,12.36-16.85,9.47C169.89,789.15,165.67,783.01,161.3,779.1z"/>
	<path d="M939.21,928.13c0.5-3.17-0.28-9.72,2.59-13.45c3.41-4.42,9.85-8.6,15.2-8.9c7.05-0.4,12.54,5.07,13,13.03
		c0.43,7.45,0.34,14.94,0.1,22.4c-0.29,8.75-5.04,13.9-13.78,14.61c-8.79,0.71-14.26-3.87-16.06-12.27
		C939.35,939.3,939.61,934.79,939.21,928.13z"/>
	<path d="M229.8,930.67c0-3.06-0.1-6.12,0.02-9.17c0.39-9.54,6.26-16.09,14.58-16.4c8.05-0.3,15.14,6.26,15.83,15.45
		c0.51,6.75,0.52,13.61-0.01,20.36c-0.77,9.71-6.97,15.23-15.85,14.99c-8.82-0.23-14.15-6.07-14.54-16.06
		C229.7,936.79,229.8,933.73,229.8,930.67z"/>
	<path d="M1062.36,949.79c-8.1-0.1-12.56-6.69-14.13-15.25c-2-10.9-11.05-22.85,2.61-32.35c7.68-5.34,18.39-1.95,21.84,7.17
		c2.85,7.53,4.94,15.52,6.1,23.49C1080.19,942.54,1073.58,949.62,1062.36,949.79z"/>
	<path d="M970.07,848.79c0,4.07,0.37,8.19-0.08,12.21c-0.85,7.75-5.49,12.29-13.21,13.03c-7.58,0.73-14.36-2.16-15.51-9.91
		c-1.41-9.56-1.62-19.57-0.45-29.15c0.97-7.98,7.75-12.26,15.67-11.37c8.21,0.92,13.48,6.05,13.66,15.01
		c0.07,3.39,0.01,6.79,0.01,10.19C970.13,848.79,970.1,848.79,970.07,848.79z"/>
	<path d="M229.8,848.88c0-3.06-0.1-6.12,0.02-9.17c0.39-9.53,6.27-16.09,14.59-16.38c8.05-0.29,15.13,6.27,15.81,15.46
		c0.5,6.75,0.52,13.61-0.01,20.36c-0.77,9.7-6.98,15.22-15.87,14.98c-8.81-0.24-14.13-6.09-14.53-16.08
		C229.7,854.99,229.8,851.93,229.8,848.88z"/>
	<path d="M850.65,858.09c3.42-11.59,5.29-20.63,8.79-28.99c3.16-7.56,10.36-9.99,17.96-7.5c7.55,2.47,11.73,8.6,10.33,16.62
		c-1.39,7.97-3.58,15.92-6.5,23.46c-2.98,7.7-10.11,11.18-17.4,8.14C858.43,867.57,854.55,861.72,850.65,858.09z"/>
	<path d="M310.51,833.41c4.1-3.78,8.03-9.62,13.46-11.88c6.84-2.84,13.91,0.6,16.74,7.75c3.22,8.13,5.86,16.73,7.04,25.35
		c1,7.27-3.11,13.27-10.64,15.31c-7.17,1.94-14.27,0.56-17.33-6.77C316.16,854.51,314.08,845.19,310.51,833.41z"/>
	<path d="M970.06,767.11c0,4.07,1.44,8.99-0.33,12.03c-2.92,5.01-7.18,10.75-12.21,12.65c-6.76,2.56-14.67-0.9-15.89-8.6
		c-1.61-10.15-1.66-20.84-0.39-31.05c0.93-7.52,7.91-11.21,15.34-10.33c7.73,0.91,13.01,5.63,13.5,14.09
		c0.22,3.72,0.04,7.47,0.04,11.2C970.1,767.11,970.08,767.11,970.06,767.11z"/>
	<path d="M229.82,766.66c-0.01-3.06-0.01-6.11,0-9.17c0.03-9.4,5.31-14.5,14.04-15.81c7.89-1.18,15.54,5.71,16.32,14.75
		c0.61,7.08,0.62,14.29,0,21.37c-0.84,9.56-7.37,14.99-16.26,14.54c-8.37-0.43-13.61-6.14-14.06-15.49
		C229.68,773.46,229.82,770.06,229.82,766.66z"/>
	<path d="M121.11,930.7c1.65-5.74,3.35-14.1,6.47-21.88c3.26-8.12,10.39-10.59,18.51-8.04c7.86,2.47,11.37,8.74,10,16.66
		c-1.32,7.63-3.42,15.21-6.07,22.49c-2.97,8.15-9.72,11.44-17.96,9.39C124.19,947.35,120.6,941.42,121.11,930.7z"/>
	<path d="M873.93,771.84c1.47-5,3.22-13.73,6.66-21.74c2.91-6.79,9.24-9.97,16.85-7.84c7.29,2.05,12.28,7.1,11.14,14.86
		c-1.31,8.97-3.42,18.04-6.81,26.41c-2.73,6.74-9.21,10.14-16.83,7.91C877.25,789.19,873.1,783.84,873.93,771.84z"/>
	<path d="M291.21,760.29c-0.14-11.35,4.49-17.6,12.11-17.87c5.32-0.19,13.34,3.37,15.69,7.69c4.22,7.76,5.75,17.25,7.16,26.21
		c1.22,7.8-3.7,12.86-10.91,15.07c-7.64,2.34-14.06-1.03-16.96-7.67C294.69,775.43,292.97,766.32,291.21,760.29z"/>
	<path d="M866.49,918.14c-1.85,6.4-3.75,14.67-6.65,22.56c-2.9,7.88-9.6,10.59-17.34,8.54c-7.65-2.02-12.54-7.58-11.22-15.83
		c1.32-8.3,3.42-16.62,6.42-24.46c2.9-7.59,9.52-10.32,17.5-8.49C863.46,902.36,866.51,908.28,866.49,918.14z"/>
	<path d="M333.51,918.23c0.09-10.1,3.15-15.7,10.86-17.67c7.88-2.02,14.7,0.41,17.74,7.97c3.13,7.78,5.22,16.12,6.63,24.4
		c1.38,8.12-3.13,14.04-10.74,16.26c-7.63,2.22-14.61-0.35-17.65-8.06C337.16,933.01,335.29,924.36,333.51,918.23z"/>
	<path d="M1022.72,839.4c0.05-11.1,3.93-16.36,11.34-18.11c7.31-1.73,14.13,0.64,16.94,7.81c3.18,8.11,5.34,16.76,6.78,25.37
		c1.27,7.58-2.77,13.28-10.18,15.46c-7.68,2.26-14.8,0.12-17.94-7.45C1026.19,854.13,1024.37,845.1,1022.72,839.4z"/>
	<path d="M160.78,870.63c-13.41,0.23-20.37-7.76-18.48-18.24c1.31-7.28,3.48-14.46,5.9-21.47c2.88-8.36,9.59-11.46,17.79-9.59
		c7.9,1.81,12.31,7.7,11.06,15.82c-1.28,8.29-3.06,16.79-6.49,24.35C168.53,865.96,162.88,868.78,160.78,870.63z"/>
</g>
</svg>
